<?xml version="1.0" encoding="utf-8"?>
<!-- Generator: Adobe Illustrator 22.1.0, SVG Export Plug-In . SVG Version: 6.00 Build 0)  -->
<svg version="1.1" id="Слой_1" xmlns="http://www.w3.org/2000/svg" xmlns:xlink="http://www.w3.org/1999/xlink" x="0px" y="0px"
	 viewBox="0 0 65.3 41.1" style="enable-background:new 0 0 65.3 41.1;" xml:space="preserve">
<style type="text/css">
	.st0{fill:none;}
	.st1{fill:#FFFFFF;}
</style>
<g>
	<path class="st0" d="M19.6,16.2c3-0.2,4.6-2.2,4.5-5c-0.2-2.6-1.9-4.1-5-4.1C16,7,12.9,7,9.8,7c-0.5,0-1,0-1.6,0.1
		c0,3.1,0,6.1,0,9.2C12.1,16.3,15.9,16.4,19.6,16.2z"/>
	<path class="st0" d="M20.7,23.6c-3.6-0.2-7.2-0.2-10.9-0.3c-0.5,0-1,0-1.6,0c0,3.7,0,7.2,0,10.7c4.3,0,8.4,0.1,12.6,0
		c3.1-0.1,4.9-2.2,4.8-5C25.6,25.9,23.8,23.8,20.7,23.6z"/>
	<path class="st1" d="M28.3,20c-0.5-0.2-1-0.4-1.6-0.7c0.2-0.2,0.3-0.3,0.4-0.3c4.1-2.5,5.8-6.5,4.9-10.8c-0.9-4-4.8-7.5-9.1-7.7
		C15.2,0.2,7.7,0.2,0,0c0,13.9,0,27.4,0,41c0.3,0,0.5,0.1,0.8,0.1c7.5-0.1,15-0.1,22.4-0.3c4.9-0.1,8.6-2.9,10.3-7.5
		C35.5,27.8,33.4,22.4,28.3,20z M8.2,7.1C8.8,7,9.3,7,9.8,7c3.1,0,6.2,0,9.3,0.1c3.1,0,4.8,1.5,5,4.1c0.2,2.8-1.4,4.8-4.5,5
		c-3.7,0.2-7.5,0-11.4,0C8.2,13.2,8.2,10.2,8.2,7.1z M20.8,33.9c-4.1,0.2-8.3,0-12.6,0c0-3.5,0-7,0-10.7c0.6,0,1.1,0,1.6,0
		c3.6,0.1,7.2,0.1,10.9,0.3c3.1,0.2,4.9,2.3,4.9,5.3C25.7,31.8,23.9,33.8,20.8,33.9z"/>
	<path class="st1" d="M49.3,34.7c-2.9-0.8-4.9-3.8-4.6-7.1c6.8,0,13.5,0,20.6,0c-0.1-1.6-0.2-2.9-0.3-4.3
		C64.2,15,59.2,10.2,50.9,9.8C44.2,9.5,38.6,13.6,36.8,20c-1,3.7-0.9,7.4,0.1,11c0.7,2.5,2,4.8,4.1,6.5c5.3,4.5,15.6,4.3,20.6-0.5
		c1.6-1.6,3.2-3.2,3.4-5.8c-2.8,0-5.6,0-8.4,0C55,34.4,52.5,35.5,49.3,34.7z M50.6,15.8c3.7-0.1,6.3,2.7,6.3,6.8c-4,0-8.1,0-12.1,0
		C44.5,18.9,47.1,15.9,50.6,15.8z"/>
	<path class="st1" d="M55.8,5.9c3.4,0,3.4,0,3.1-3.5c0-0.1-0.1-0.2-0.1-0.5C53.4,2,48,2,42.6,2c0,1.3,0,2.6,0,3.8
		c0.2,0.1,0.3,0.1,0.4,0.1C47.3,5.9,51.6,5.9,55.8,5.9z"/>
</g>
</svg>
