<?xml version="1.0" encoding="utf-8"?>
<!-- Generator: Adobe Illustrator 22.1.0, SVG Export Plug-In . SVG Version: 6.00 Build 0)  -->
<svg version="1.1" id="Слой_1" xmlns="http://www.w3.org/2000/svg" xmlns:xlink="http://www.w3.org/1999/xlink" x="0px" y="0px"
	 viewBox="0 0 115.2 115.2" style="enable-background:new 0 0 115.2 115.2;" xml:space="preserve">
<style type="text/css">
	.st0{fill:#FFFFFF;}
</style>
<g>
	<path class="st0" d="M57.7,115.3C26,115.2,0.3,89.4,0.3,57.8C0.4,26,26.2,0.3,57.8,0.4c31.7,0.1,57.4,25.9,57.4,57.5
		C115.1,89.6,89.3,115.3,57.7,115.3z M57.8,6C29.3,6,5.9,29.4,6,57.8c0,28.4,23.3,51.7,51.7,51.8c28.4,0.1,51.8-23.3,51.9-51.8
		C109.6,29.4,86.2,6,57.8,6z"/>
	<path class="st0" d="M62.3,39.1c0,2.5,0,4.7,0,7.1c0.5,0,1,0,1.5,0c3.7,0,7.4,0,11,0c1.2,0,1.7,0.4,1.7,1.6c-0.1,4-0.1,8,0,12
		c0,1.3-0.5,1.7-1.7,1.7c-3.3,0-6.6,0-10,0c-0.5,0-1,0-1.6,0c0,0.6,0,1.2,0,1.7c0,8.9,0,17.7,0,26.6c0,1.8-0.1,1.9-1.9,1.9
		c-3.6,0-7.2,0-10.8,0c-1.6,0-1.8-0.2-1.8-1.7c0-9,0-18.1,0-27.1c0-0.3,0-0.7,0-1.2c-0.6,0-1-0.1-1.5-0.1c-2.2,0-4.4,0-6.6,0
		c-1,0-1.5-0.4-1.4-1.4c0-4.1,0-8.2,0-12.4c0-1.1,0.5-1.5,1.6-1.5c2.6,0,5.2,0,8.1,0c0-2.4-0.2-4.8,0-7.1c0.2-2.4,0.5-5,1.3-7.3
		c1.7-5.3,6-7.4,11.2-7.6c4.6-0.2,9.3-0.1,13.9-0.1c0.9,0,1.3,0.5,1.3,1.3c0,4.1,0,8.2,0,12.4c0,1.1-0.6,1.3-1.5,1.3
		c-3.7,0-7.4,0-11,0C63.4,39.1,62.9,39.1,62.3,39.1z"/>
</g>
</svg>
