<?xml version="1.0" encoding="utf-8"?>
<!-- Generator: Adobe Illustrator 22.1.0, SVG Export Plug-In . SVG Version: 6.00 Build 0)  -->
<svg version="1.1" id="Слой_1" xmlns="http://www.w3.org/2000/svg" xmlns:xlink="http://www.w3.org/1999/xlink" x="0px" y="0px"
	 viewBox="0 0 115.2 115.2" style="enable-background:new 0 0 115.2 115.2;" xml:space="preserve">
<style type="text/css">
	.st0{fill:#FFFFFF;}
</style>
<g>
	<path class="st0" d="M57.7,115.3C26,115.2,0.3,89.5,0.3,57.8c0-31.7,25.8-57.5,57.5-57.4c31.7,0,57.4,25.8,57.4,57.5
		C115.2,89.6,89.4,115.3,57.7,115.3z M57.8,109.6c28.4,0,51.7-23.3,51.7-51.8C109.6,29.4,86.2,6,57.8,6C29.3,6,6,29.4,6,57.8
		C6,86.3,29.4,109.7,57.8,109.6z"/>
	<path class="st0" d="M57.7,85.5c-5.7,0-11.4,0-17.1,0c-6.4,0-10.4-4-10.4-10.5c0-11.5,0-22.9,0-34.4c0-6.4,4-10.5,10.4-10.5
		c11.5,0,22.9,0,34.4,0c6.3,0,10.4,4,10.4,10.4c0,11.5,0,23,0,34.5c0,6.4-4,10.4-10.4,10.4C69.3,85.5,63.5,85.5,57.7,85.5z M35.8,52
		c0,0.6,0,1,0,1.3c0,7.3,0,14.5,0,21.8c0,3.3,1.5,4.8,4.8,4.8c11.4,0,22.8,0,34.1,0c3.5,0,4.9-1.4,4.9-4.9c0-7.2,0-14.3,0-21.5
		c0-0.5,0-0.9-0.1-1.5c-0.5,0-1,0-1.4,0c-2.5,0-5,0-7.6,0c1.9,8.5,0.4,13.7-5.1,17.4c-4.7,3.2-10.8,3.3-15.5,0
		C44,65,42.5,59,44.9,52C41.9,52,39,52,35.8,52z M57.8,51.9c-1.2,0-2.4,0-3.6,0c-2.8,0-3.5,0.5-4.3,3.2c-0.3,1-0.4,2.2-0.4,3.3
		c0.1,3.5,2.7,6.6,6.2,7.4c3.4,0.9,7.1-0.6,9-3.5c1.9-3,1.7-7-0.5-9.6c-0.3-0.3-0.9-0.6-1.3-0.6C61.2,51.9,59.5,51.9,57.8,51.9z
		 M76.9,37.9c-2.8,0-5.5,0-8.3,0c0,2.9,0,5.7,0,8.5c2.8,0,5.5,0,8.3,0C76.9,43.5,76.9,40.8,76.9,37.9z"/>
</g>
</svg>
