<svg id="Шар_1" data-name="Шар 1" xmlns="http://www.w3.org/2000/svg" viewBox="0 0 277.17 57.34"><defs><style>.cls-1{fill:#fff;}</style></defs><title>logo_davyd</title><path class="cls-1" d="M48.75,0V46.74q0,4.8.31,9.13H37.76c-.2-2.37-.31-4.15-.31-5.34H37.3q-4.5,6.81-15.86,6.81-10.31,0-15.87-5.92A20.59,20.59,0,0,1,0,36.76,25,25,0,0,1,1.47,27.9a17.18,17.18,0,0,1,3.71-6.16A20,20,0,0,1,10.37,18a21.66,21.66,0,0,1,5.49-2A26,26,0,0,1,21,15.55q10.83,0,15.86,6.81H37V0ZM33.54,46A13.91,13.91,0,0,0,37,36.45a13.94,13.94,0,0,0-3.45-9.56A11.35,11.35,0,0,0,24.61,23a11.36,11.36,0,0,0-8.94,3.91,13.93,13.93,0,0,0-3.44,9.56A13.9,13.9,0,0,0,15.67,46a11.33,11.33,0,0,0,8.94,3.91A11.32,11.32,0,0,0,33.54,46Z"/><path class="cls-1" d="M106.61,32.27V48.52q0,3.87.31,7.35H96.08a43.19,43.19,0,0,1-.31-5.34Q89,57.34,77.36,57.34q-9.37,0-13.85-3.56T59,45.42a13.16,13.16,0,0,1,1.35-6.15A11,11,0,0,1,64,35.13a18.42,18.42,0,0,1,5.8-2.44A45.35,45.35,0,0,1,77,31.49c2.42-.2,5.26-.31,8.51-.31h9.36q0-8.66-10.75-8.66A12.5,12.5,0,0,0,77.51,24a5.57,5.57,0,0,0-2.86,3.9H62.42q1.47-12.37,22-12.38Q106.6,15.55,106.61,32.27ZM94.84,38.15H85.17q-13.92,0-13.93,6.5a5.61,5.61,0,0,0,2.17,4.29c1.44,1.27,3.69,1.9,6.73,1.9a17,17,0,0,0,4.76-.7A17.55,17.55,0,0,0,89.58,48a11.37,11.37,0,0,0,3.72-4A12.12,12.12,0,0,0,94.84,38.15Z"/><path class="cls-1" d="M114,17h13.7l14.7,30.18L157.08,17h12.54L149.19,55.87h-14.7Z"/><path class="cls-1" d="M221.65,55.87H207.72L193.33,27.78,178.78,55.87H166l29.17-53.7h13.47l-8.43,15Z"/><path class="cls-1" d="M276.87,0V46.74q0,4.8.3,9.13H265.88c-.21-2.37-.31-4.15-.31-5.34h-.16q-4.49,6.81-15.86,6.81-10.29,0-15.86-5.92a20.55,20.55,0,0,1-5.57-14.66,25,25,0,0,1,1.46-8.86,17,17,0,0,1,3.72-6.16A20,20,0,0,1,238.48,18a21.72,21.72,0,0,1,5.5-2,26,26,0,0,1,5.1-.51q10.85,0,15.87,6.81h.15V0ZM261.66,46a14,14,0,0,0,3.44-9.55,14,14,0,0,0-3.44-9.56,12.18,12.18,0,0,0-17.88,0,14,14,0,0,0-3.44,9.56A14,14,0,0,0,243.78,46a12.18,12.18,0,0,0,17.88,0Z"/></svg>