<svg id="Шар_1" data-name="Шар 1" xmlns="http://www.w3.org/2000/svg" viewBox="0 0 225.2 46.59"><title>logo_davyd_black_Монтажна область 1</title><path d="M39.61,0V38c0,2.6.08,5.08.25,7.42H30.68c-.17-1.92-.25-3.37-.25-4.34H30.3q-3.64,5.54-12.88,5.54Q9,46.59,4.53,41.78A16.72,16.72,0,0,1,0,29.86a20.51,20.51,0,0,1,1.19-7.2,14,14,0,0,1,3-5,16.17,16.17,0,0,1,4.21-3,17.7,17.7,0,0,1,4.47-1.6A20.78,20.78,0,0,1,17,12.64q8.81,0,12.89,5.53h.12V0ZM27.25,37.38a11.33,11.33,0,0,0,2.8-7.77,11.28,11.28,0,0,0-2.8-7.76A9.2,9.2,0,0,0,20,18.67a9.22,9.22,0,0,0-7.26,3.18,11.33,11.33,0,0,0-2.8,7.76,11.37,11.37,0,0,0,2.8,7.77A9.24,9.24,0,0,0,20,40.55,9.23,9.23,0,0,0,27.25,37.38Z"/><path d="M86.62,26.22v13.2q0,3.15.25,6h-8.8a33.53,33.53,0,0,1-.26-4.34q-5.52,5.54-15,5.54-7.6,0-11.25-2.89A8.5,8.5,0,0,1,48,36.91a10.69,10.69,0,0,1,1.1-5,9,9,0,0,1,3-3.37,15.11,15.11,0,0,1,4.71-2,36.82,36.82,0,0,1,5.82-1q3-.25,6.91-.25h7.61q0-7-8.74-7A10.15,10.15,0,0,0,63,19.52a4.55,4.55,0,0,0-2.33,3.18H50.72q1.19-10.06,17.85-10.06Q86.62,12.64,86.62,26.22ZM77.06,31H69.2q-11.31,0-11.32,5.28a4.57,4.57,0,0,0,1.76,3.49c1.18,1,3,1.54,5.48,1.54A13.94,13.94,0,0,0,69,40.74,14.46,14.46,0,0,0,72.79,39a9.06,9.06,0,0,0,3-3.24A9.78,9.78,0,0,0,77.06,31Z"/><path d="M92.61,13.83h11.13l11.94,24.52,11.95-24.52h10.18L121.22,45.39h-12Z"/><path d="M180.09,45.39H168.77L157.08,22.57,145.26,45.39H134.88L158.59,1.76h10.93L162.67,14Z"/><path d="M225,0V38c0,2.6.08,5.08.25,7.42H216c-.17-1.92-.25-3.37-.25-4.34h-.13q-3.64,5.54-12.88,5.54-8.37,0-12.89-4.81a16.72,16.72,0,0,1-4.53-11.92,20.51,20.51,0,0,1,1.19-7.2,14,14,0,0,1,3-5,16.17,16.17,0,0,1,4.21-3,17.7,17.7,0,0,1,4.47-1.6,20.86,20.86,0,0,1,4.15-.41q8.81,0,12.89,5.53h.12V0ZM212.6,37.38a11.37,11.37,0,0,0,2.79-7.77,11.32,11.32,0,0,0-2.79-7.76,9.89,9.89,0,0,0-14.53,0,11.32,11.32,0,0,0-2.79,7.76,11.37,11.37,0,0,0,2.79,7.77,9.91,9.91,0,0,0,14.53,0Z"/></svg>