<svg id="Шар_1" data-name="Шар 1" xmlns="http://www.w3.org/2000/svg" viewBox="0 0 517.78 107.31"><defs><style>.cls-1{fill:none;stroke:#fff;stroke-miterlimit:10;stroke-width:0.25px;}</style></defs><title>logo_davyd_contur</title><path class="cls-1" d="M91.15.13V87.39q0,9,.57,17H70.63q-.57-6.64-.57-10h-.3q-8.37,12.72-29.61,12.72-19.23,0-29.62-11.06T.13,68.76A46.78,46.78,0,0,1,2.87,52.21,32,32,0,0,1,9.8,40.72a37.11,37.11,0,0,1,9.68-6.93,40.58,40.58,0,0,1,10.26-3.68,49,49,0,0,1,9.54-.95q20.24,0,29.62,12.72h.29V.13ZM62.76,86a26.05,26.05,0,0,0,6.43-17.84,26.09,26.09,0,0,0-6.43-17.85A21.22,21.22,0,0,0,46.07,43a21.2,21.2,0,0,0-16.69,7.29A26.09,26.09,0,0,0,23,68.18,26.05,26.05,0,0,0,29.38,86a21.18,21.18,0,0,0,16.69,7.3A21.2,21.2,0,0,0,62.76,86Z"/><path class="cls-1" d="M199.18,60.37V90.72q0,7.22.57,13.72H179.52a79.37,79.37,0,0,1-.57-10q-12.72,12.72-34.39,12.72-17.48,0-25.86-6.65t-8.38-15.6a24.47,24.47,0,0,1,2.53-11.49,20.64,20.64,0,0,1,6.79-7.73,34.1,34.1,0,0,1,10.83-4.55,83.68,83.68,0,0,1,13.37-2.24q6.79-.59,15.89-.58h17.48q0-16.18-20.08-16.18-7.66,0-12.28,2.82c-3.08,1.87-4.87,4.31-5.35,7.29H116.68q2.73-23.12,41-23.12Q199.17,29.16,199.18,60.37Zm-22,11H159.15q-26,0-26,12.13,0,4.49,4,8t12.57,3.54a32.21,32.21,0,0,0,8.89-1.3,33.42,33.42,0,0,0,8.74-4,21.18,21.18,0,0,0,6.93-7.44A22.64,22.64,0,0,0,177.21,71.36Z"/><path class="cls-1" d="M213,31.91h25.57L266,88.26l27.45-56.35h23.41l-38.14,72.53H251.24Z"/><path class="cls-1" d="M414,104.44H388L361.1,52l-27.17,52.45H310.09L364.56,4.17H389.7L374,32.2Z"/><path class="cls-1" d="M517.07.13V87.39q0,9,.58,17H496.56q-.58-6.64-.58-10h-.29q-8.38,12.72-29.62,12.72-19.21,0-29.62-11.06t-10.4-27.37a46.78,46.78,0,0,1,2.74-16.55,32,32,0,0,1,6.94-11.49,36.94,36.94,0,0,1,9.68-6.93,40.58,40.58,0,0,1,10.26-3.68,48.81,48.81,0,0,1,9.53-.95q20.24,0,29.62,12.72h.29V.13ZM488.68,86a26,26,0,0,0,6.43-17.84,26,26,0,0,0-6.43-17.85,22.75,22.75,0,0,0-33.38,0,26.09,26.09,0,0,0-6.42,17.85A26,26,0,0,0,455.3,86a22.73,22.73,0,0,0,33.38,0Z"/></svg>